<svg width="24" height="24" viewBox="0 0 24 24" fill="none" xmlns="http://www.w3.org/2000/svg">
<path fill-rule="evenodd" clip-rule="evenodd" d="M10.4531 6.2336C11.007 6.2336 11.4561 6.68288 11.4561 7.23526C11.4561 7.78918 11.007 8.23846 10.4531 8.23846C9.90052 8.23846 9.45139 7.78918 9.45139 7.23526C9.45139 6.68288 9.90052 6.2336 10.4531 6.2336Z" fill="#39892F"/>
<path fill-rule="evenodd" clip-rule="evenodd" d="M18.0559 9.93898V6.95546C18.0359 3.66341 15.3595 0.999983 12.0631 0.999983C8.75239 0.999983 6.0689 3.68363 6.0689 6.99281V8.73931L6.38746 8.92297L8.13967 9.93467V6.99281H8.14692C8.14692 4.8316 9.90052 3.078 12.0631 3.078C14.2243 3.078 15.9779 4.8316 15.9779 6.99281V11.5305V13.455C15.9779 15.6693 17.7747 17.4659 19.989 17.4659C22.2047 17.4659 24 15.6693 24 13.455C24 11.2391 22.2047 9.44387 19.989 9.44387C19.6747 9.44387 19.3677 9.47983 19.0749 9.54866V11.7515C19.3461 11.6051 19.6575 11.5219 19.989 11.5219C21.0566 11.5219 21.922 12.3873 21.922 13.455C21.922 14.5225 21.0566 15.3879 19.989 15.3879C18.9213 15.3879 18.0559 14.5225 18.0559 13.455V9.93898Z" fill="url(#paint0_linear_1164_20)"/>
<path fill-rule="evenodd" clip-rule="evenodd" d="M8.87154 13.9844L8.93621 14.0217C9.62935 13.6471 10.3225 13.2727 11.0155 12.8981C10.8261 12.7904 10.6367 12.6828 10.4487 12.5723C8.90457 11.6697 6.70756 10.0711 5.15614 9.60886C4.79314 9.50128 4.40852 9.44387 4.01095 9.44387C1.79526 9.44387 0 11.2391 0 13.455C0 15.6693 1.79526 17.4659 4.01095 17.4659C5.86224 17.4659 7.42076 16.2102 7.88285 14.5054L5.99852 13.455C5.99852 14.5528 5.10876 15.4424 4.01095 15.4424C2.91313 15.4424 2.02198 14.5528 2.02198 13.455C2.02198 12.357 2.91313 11.4659 4.01095 11.4659C4.30944 11.4659 4.59357 11.5319 4.84762 11.6511C6.23111 12.2954 7.56136 13.2238 8.87154 13.9844Z" fill="#39892F"/>
<path fill-rule="evenodd" clip-rule="evenodd" d="M13.6704 6.2336C14.2243 6.2336 14.6735 6.68288 14.6735 7.23526C14.6735 7.78918 14.2243 8.23846 13.6704 8.23846C13.1179 8.23846 12.6687 7.78918 12.6687 7.23526C12.6687 6.68288 13.1179 6.2336 13.6704 6.2336Z" fill="#39892F"/>
<path fill-rule="evenodd" clip-rule="evenodd" d="M14.9031 14.0791L14.9678 14.0433C14.9906 13.2554 15.0122 12.4675 15.0352 11.6812C14.8472 11.7903 14.6591 11.9008 14.4697 12.0084C12.9141 12.8938 10.4314 13.9973 9.25754 15.1095C8.98205 15.3708 8.73958 15.675 8.54157 16.0193C7.43357 17.9381 8.0909 20.3921 10.0081 21.4984C11.9268 22.6064 14.3808 21.949 15.4887 20.0303C16.4142 18.4275 16.1071 16.4499 14.86 15.197L13.0089 16.3035C13.9589 16.8517 14.2847 18.0686 13.7365 19.0186C13.1882 19.9701 11.9713 20.2959 11.0213 19.7461C10.0698 19.1981 9.74402 17.9825 10.2922 17.031C10.443 16.7728 10.641 16.5589 10.8705 16.3982C12.1205 15.5214 13.59 14.8354 14.9031 14.0791Z" fill="url(#paint1_linear_1164_20)"/>
<defs>
<linearGradient id="paint0_linear_1164_20" x1="24" y1="17.4659" x2="15.7824" y2="8.29867" gradientUnits="userSpaceOnUse">
<stop stop-color="#00338E"/>
<stop offset="1" stop-color="#39892F"/>
</linearGradient>
<linearGradient id="paint1_linear_1164_20" x1="16.0265" y1="22.0367" x2="5.39248" y2="17.743" gradientUnits="userSpaceOnUse">
<stop stop-color="#00338E"/>
<stop offset="1" stop-color="#39892F"/>
</linearGradient>
</defs>
</svg>
