<svg width="77" height="24" viewBox="0 0 77 24" fill="none" xmlns="http://www.w3.org/2000/svg">
<path d="M48.4667 12.3945C49.5899 12.3945 50.4162 11.7217 50.4162 11.7217V12.3945C50.973 12.2061 51.8378 12.0032 52.8052 11.8439V11.4816L52.3364 11.4382C51.7939 11.3947 51.7059 11.3078 51.7059 10.5398V2.00558C51.1198 2.17946 50.1085 2.39682 49.3315 2.49825V2.86049C50.3282 2.94743 50.4162 2.99088 50.4162 3.90373V5.88878C50.0792 5.77288 49.6982 5.74391 49.522 5.74391C47.4699 5.74391 45.7255 7.32327 45.7255 9.30818C45.7255 11.3512 47.2941 12.3945 48.4667 12.3945ZM17.8903 12.2205L22.0379 12.2209L22.0386 11.8001C20.69 11.7132 20.5727 11.6262 20.5727 10.4239C20.5727 10.4239 20.5708 8.31158 20.5727 8.20697C21.0553 8.45083 21.7543 8.51333 22.2731 8.46779C24.0389 8.28179 25.1314 7.1059 25.1314 5.49757C25.1314 4.59935 24.7943 3.93284 24.164 3.45469C23.6217 3.04899 22.8301 2.86063 21.7014 2.86063H18.0369V3.25184C19.1216 3.33878 19.2095 3.44021 19.2095 4.68629V10.4094C19.2095 11.5973 19.0773 11.7132 17.89 11.8001L17.8903 12.2205ZM21.5695 7.87387C21.1444 7.87387 20.7486 7.78693 20.5727 7.71448V4.15006C20.5727 3.7733 20.6167 3.61394 20.7193 3.51252C20.8219 3.4111 21.1004 3.33864 21.4669 3.33864C22.8008 3.33864 23.607 4.16455 23.607 5.55555C23.607 7.03348 22.8154 7.87387 21.5695 7.87387ZM25.3658 12.2206H28.8545V11.8294C27.7551 11.7424 27.6818 11.6555 27.6818 10.7282V8.07672C27.9896 7.30879 28.4294 6.93206 28.7665 6.93206C29.0157 6.93206 29.1916 7.00448 29.4115 7.22185C29.4701 7.27978 29.5288 7.30879 29.6167 7.30879C29.6753 7.30879 29.734 7.29427 29.8073 7.2653C30.1297 7.13491 30.3203 6.8306 30.3203 6.49736C30.3203 6.13512 29.9685 5.74391 29.4408 5.74391C28.7665 5.74391 28.1655 6.51185 27.7111 7.2653H27.6818V5.7149C26.9342 6.00473 26.26 6.17857 25.5124 6.29451V6.65676C26.3186 6.78715 26.3919 6.8306 26.3919 7.71448V10.7282C26.3919 11.6555 26.2893 11.7424 25.3658 11.8294V12.2206ZM33.2812 12.3945C34.7762 12.3945 36.4765 11.2933 36.4765 8.96046C36.4765 7.19284 35.1427 5.74391 33.2959 5.74391C31.918 5.74391 30.0564 6.84512 30.0564 9.20676C30.0564 10.8006 31.2291 12.3945 33.2812 12.3945ZM33.4425 11.9018C32.2845 11.9018 31.5369 10.5543 31.5369 8.74309C31.5369 7.09142 32.2845 6.23654 33.1347 6.23654C34.3365 6.23654 34.9961 7.55508 34.9961 9.2937C34.9961 11.3078 34.2778 11.9018 33.4425 11.9018ZM49.1264 11.4671C48.2322 11.4671 47.1769 10.6557 47.1769 8.93146C47.1769 6.8306 48.3787 6.29451 49.0092 6.29451C49.522 6.29451 50.0792 6.54081 50.4162 7.03348V11.018C50.0645 11.2643 49.6099 11.4671 49.1264 11.4671ZM43.9372 4.39636C44.3772 4.39636 44.7288 4.0486 44.7288 3.62843C44.7288 3.16476 44.3772 2.817 43.9519 2.817C43.5123 2.817 43.146 3.16476 43.146 3.62843C43.146 4.0486 43.5123 4.39636 43.9372 4.39636ZM55.7372 12.3945C56.2207 12.3945 57.2321 12.1337 58.1556 10.9745L57.9211 10.6557C57.3933 11.1339 56.8512 11.3657 56.2647 11.3657C55.2387 11.3657 54.1247 10.5543 54.1247 8.67064C55.8105 8.6127 57.5988 8.48242 57.8625 8.43882C58.1556 8.39548 58.2142 8.2506 58.2142 7.96081C58.2142 6.81612 57.2321 5.74391 56.0009 5.74391C55.2386 5.74391 54.491 6.13512 53.8463 6.80163C53.2159 7.45366 52.8639 8.33754 52.8639 9.32267C52.8639 10.96 53.9196 12.3945 55.7372 12.3945ZM54.2126 8.06224C54.4031 6.88857 55.0189 6.28003 55.6636 6.28003C56.4259 6.28003 56.8805 6.97551 56.8805 7.72896C56.8805 7.94629 56.8072 8.00427 56.5431 8.01875C55.7372 8.06224 54.9749 8.06224 54.2126 8.06224ZM58.5366 12.2206H61.7758V11.8294C60.9553 11.7424 60.8674 11.6845 60.8674 10.7282V7.32327C61.2923 6.96103 61.8348 6.64224 62.3623 6.64224C63.2565 6.64224 63.6374 7.22185 63.6374 8.23612V10.6412C63.6374 11.641 63.5349 11.7424 62.714 11.8294V12.2206H65.8364V11.8294C65.0008 11.728 64.9129 11.6845 64.9129 10.7282V7.94629C64.9129 6.5553 64.1946 5.74391 63.022 5.74391C62.5967 5.74391 62.2304 5.90327 61.8202 6.17857C61.4535 6.42491 61.1604 6.62775 60.8674 6.84512V5.70042C60.1784 5.97572 59.4454 6.16409 58.6977 6.29451V6.65676C59.4893 6.80163 59.5772 6.87409 59.5772 7.74345V10.7137C59.5772 11.6555 59.504 11.728 58.5366 11.8294V12.2206ZM68.8999 12.3945C69.7497 12.3945 70.7175 11.7569 71.3183 10.989L71.0545 10.6702C70.468 11.1918 69.9992 11.3657 69.3834 11.3657C68.6065 11.3657 67.2141 10.6992 67.2141 8.71413C67.2141 7.19284 68.0204 6.45387 68.9145 6.45387C69.3981 6.45387 69.9259 6.61327 70.3801 7.06245C70.4974 7.17836 70.5706 7.22185 70.6585 7.22185C70.8347 7.22185 71.1717 6.88857 71.1717 6.56982C71.1717 6.41042 71.1278 6.28003 70.9226 6.12064C70.6878 5.93227 70.219 5.74391 69.6325 5.74391C69.0757 5.74391 68.1962 5.97572 67.3899 6.5843C66.4372 7.29427 65.9243 8.27957 65.9243 9.36615C65.9243 10.931 67.009 12.3945 68.8999 12.3945ZM74.4846 12.3945C74.9682 12.3945 75.9796 12.1337 76.903 10.9745L76.6682 10.6557C76.1407 11.1339 75.5982 11.3657 75.0121 11.3657C73.9861 11.3657 72.8721 10.5543 72.8721 8.67064C74.5579 8.6127 76.3459 8.48242 76.6096 8.43882C76.903 8.39548 76.9616 8.2506 76.9616 7.96081C76.9616 6.81612 75.9796 5.74391 74.7484 5.74391C73.9861 5.74391 73.2238 6.13512 72.5937 6.80163C71.978 7.43918 71.6113 8.32306 71.6113 9.32267C71.6113 10.96 72.667 12.3945 74.4846 12.3945ZM72.9601 8.06224C73.1652 6.88857 73.7663 6.28003 74.411 6.28003C75.1733 6.28003 75.6275 6.97551 75.6275 7.72896C75.6275 7.94629 75.5543 8.00427 75.2905 8.01875C74.4846 8.06224 73.7224 8.06224 72.9601 8.06224ZM36.3447 6.35245C36.8282 6.46839 36.9601 6.56982 37.2828 7.32327C38.0011 9.00391 38.6458 10.6557 39.3056 12.3945H39.7305C40.5661 10.25 41.299 8.46793 41.7976 7.36672C42.1785 6.51185 42.3397 6.35245 42.7354 6.35245C43.1606 6.35245 43.2925 6.61327 43.2925 7.41021V10.6702C43.2925 11.641 43.1899 11.7424 42.2665 11.8294V12.2206H45.6083V11.8294C44.6849 11.7424 44.5823 11.641 44.5823 10.6702V5.70042C43.6735 5.8743 42.8819 5.91779 40.4781 5.91779V6.35245C41.0499 6.42491 41.2551 6.49736 41.2551 6.75818C41.2551 6.87409 41.2111 7.03348 41.1525 7.22185C40.8595 8.16366 40.3756 9.46758 39.9067 10.5688C39.5107 9.569 38.9393 8.10569 38.5726 7.1059C38.4993 6.91754 38.4554 6.77266 38.4554 6.67124C38.4554 6.49736 38.6458 6.42491 39.159 6.35245V5.91779H36.3447V6.35245Z" fill="#00338E"/>
<path d="M18.0158 21.6611V21.3602C18.151 21.3602 18.2547 21.3245 18.3269 21.2532C18.399 21.1819 18.4599 21.0861 18.5095 20.9657C18.5591 20.8409 18.6132 20.7028 18.6718 20.5512L20.0381 16.854H20.3086L21.7898 20.6047C21.8259 20.6894 21.8665 20.8053 21.9115 20.9524C21.9566 21.095 21.9769 21.2176 21.9724 21.3201C22.0491 21.3112 22.1235 21.3067 22.1956 21.3067C22.2723 21.3023 22.3444 21.2978 22.4121 21.2933V21.6611H20.7685V21.3669C20.9263 21.3624 21.03 21.329 21.0796 21.2666C21.1337 21.1997 21.154 21.1195 21.1405 21.0259C21.1315 20.9323 21.1089 20.8387 21.0729 20.7451L20.87 20.2036L19.2129 20.2437L19.0168 20.8253C18.9897 20.9145 18.9604 20.9992 18.9288 21.0794C18.8973 21.1596 18.8657 21.2376 18.8342 21.3134C18.9153 21.3045 19.001 21.3 19.0912 21.3C19.1859 21.2956 19.2693 21.2911 19.3414 21.2867V21.6611H18.0158ZM19.3347 19.8827H20.755L20.3289 18.7528C20.2748 18.6057 20.2229 18.4608 20.1733 18.3182C20.1237 18.1711 20.0786 18.0307 20.0381 17.897H20.0313C19.9952 18.0084 19.9546 18.131 19.9095 18.2647C19.8645 18.3984 19.8126 18.5433 19.754 18.6993L19.3347 19.8827Z" fill="#39892F"/>
<path d="M22.6399 21.6611V21.3803C22.7752 21.3803 22.8699 21.3491 22.924 21.2867C22.9781 21.2243 23.0097 21.1373 23.0187 21.0259C23.0322 20.9145 23.039 20.7852 23.039 20.6381L23.0458 19.2475C23.0458 19.1762 23.0458 19.1004 23.0458 19.0202C23.0503 18.9355 23.0593 18.8531 23.0728 18.7728C22.9917 18.7773 22.9082 18.7817 22.8226 18.7862C22.7414 18.7862 22.6647 18.7884 22.5926 18.7929V18.4385C22.7955 18.4385 22.9533 18.4296 23.066 18.4118C23.1833 18.3895 23.2712 18.365 23.3298 18.3383C23.393 18.3115 23.4403 18.2825 23.4719 18.2513H23.7153C23.7199 18.2915 23.7221 18.3293 23.7221 18.365C23.7266 18.4007 23.7289 18.4385 23.7289 18.4787C23.7334 18.5188 23.7379 18.57 23.7424 18.6324C23.8416 18.5522 23.9498 18.4809 24.0671 18.4185C24.1843 18.3561 24.306 18.3071 24.4323 18.2714C24.563 18.2313 24.687 18.2112 24.8043 18.2112C25.2056 18.2112 25.4942 18.3316 25.67 18.5723C25.8504 18.8129 25.9405 19.1896 25.9405 19.7021V20.832C25.9405 20.9123 25.9383 20.9947 25.9338 21.0794C25.9293 21.1596 25.9225 21.2421 25.9135 21.3268C25.9856 21.3223 26.0578 21.3201 26.1299 21.3201C26.2066 21.3156 26.2765 21.3112 26.3396 21.3067V21.6611H24.8313V21.3803C24.9666 21.3803 25.0613 21.3491 25.1154 21.2867C25.1695 21.2243 25.2011 21.1373 25.2101 21.0259C25.2236 20.9145 25.2304 20.7852 25.2304 20.6381V19.7021C25.2259 19.35 25.1672 19.0848 25.0545 18.9065C24.9463 18.7283 24.7705 18.6413 24.527 18.6458C24.3827 18.6458 24.2406 18.6815 24.1009 18.7528C23.9611 18.8241 23.8439 18.911 23.7492 19.0135C23.7492 19.0581 23.7492 19.1071 23.7492 19.1606C23.7492 19.2096 23.7492 19.2609 23.7492 19.3144V20.832C23.7492 20.9123 23.7469 20.9947 23.7424 21.0794C23.7379 21.1596 23.7311 21.2421 23.7221 21.3268C23.7943 21.3223 23.8664 21.3201 23.9385 21.3201C24.0152 21.3156 24.0851 21.3112 24.1482 21.3067V21.6611H22.6399Z" fill="#39892F"/>
<path d="M28.8095 21.6611C28.8005 21.5897 28.7938 21.5273 28.7893 21.4739C28.7847 21.4204 28.778 21.3647 28.769 21.3067C28.6157 21.4583 28.4511 21.5741 28.2752 21.6544C28.0994 21.7301 27.9168 21.768 27.7274 21.768C27.4027 21.768 27.157 21.69 26.9902 21.534C26.8278 21.3736 26.7467 21.1752 26.7467 20.939C26.7467 20.734 26.8075 20.5557 26.9293 20.4041C27.051 20.2526 27.2111 20.13 27.4095 20.0364C27.6079 19.9384 27.8243 19.8671 28.0588 19.8225C28.2933 19.7735 28.5232 19.7489 28.7487 19.7489V19.3545C28.7487 19.2119 28.7351 19.0804 28.7081 18.96C28.681 18.8352 28.6247 18.7349 28.539 18.6592C28.4578 18.5789 28.3293 18.5388 28.1535 18.5388C28.0362 18.5344 27.919 18.5567 27.8018 18.6057C27.6845 18.6503 27.5944 18.726 27.5312 18.833C27.5673 18.8687 27.5899 18.911 27.5989 18.96C27.6124 19.0046 27.6192 19.0469 27.6192 19.0871C27.6192 19.1495 27.5921 19.2208 27.538 19.301C27.4839 19.3768 27.3915 19.4124 27.2607 19.408C27.1525 19.408 27.0691 19.3723 27.0104 19.301C26.9563 19.2252 26.9293 19.1383 26.9293 19.0403C26.9293 18.8798 26.9879 18.7372 27.1051 18.6124C27.2269 18.4876 27.3915 18.3895 27.5989 18.3182C27.8063 18.2469 28.0385 18.2112 28.2955 18.2112C28.6833 18.2112 28.9719 18.3115 29.1612 18.5121C29.3551 18.7127 29.4521 19.0291 29.4521 19.4615C29.4521 19.6219 29.4521 19.7757 29.4521 19.9228C29.4521 20.0699 29.4498 20.2169 29.4453 20.364C29.4453 20.5111 29.4453 20.6671 29.4453 20.832C29.4453 20.8989 29.4431 20.9747 29.4385 21.0593C29.434 21.144 29.4273 21.2332 29.4183 21.3268C29.4949 21.3223 29.5738 21.3179 29.655 21.3134C29.7361 21.3089 29.8128 21.3067 29.8849 21.3067V21.6611H28.8095ZM28.7487 20.0565C28.6044 20.0654 28.4556 20.0855 28.3023 20.1167C28.1535 20.1479 28.0182 20.1947 27.8965 20.2571C27.7747 20.3195 27.6755 20.3997 27.5989 20.4977C27.5267 20.5958 27.4907 20.7139 27.4907 20.8521C27.4997 21.0036 27.5493 21.1151 27.6395 21.1864C27.7341 21.2577 27.8446 21.2933 27.9709 21.2933C28.1287 21.2933 28.2685 21.2644 28.3902 21.2064C28.5119 21.144 28.6314 21.0593 28.7487 20.9524C28.7442 20.9033 28.7419 20.8543 28.7419 20.8053C28.7419 20.7518 28.7419 20.6961 28.7419 20.6381C28.7419 20.598 28.7419 20.5245 28.7419 20.4175C28.7464 20.3061 28.7487 20.1857 28.7487 20.0565Z" fill="#39892F"/>
<path d="M30.2404 21.3803C30.3757 21.3803 30.4704 21.3491 30.5245 21.2867C30.5786 21.2243 30.6101 21.1373 30.6192 21.0259C30.6327 20.9145 30.6394 20.7852 30.6394 20.6381V17.6162C30.6394 17.5404 30.6394 17.4647 30.6394 17.3889C30.644 17.3087 30.6507 17.224 30.6597 17.1348C30.5831 17.1393 30.5019 17.1437 30.4162 17.1482C30.3306 17.1482 30.2539 17.1504 30.1863 17.1549V16.8005C30.3892 16.8005 30.5493 16.7916 30.6665 16.7738C30.7882 16.7515 30.8807 16.727 30.9438 16.7003C31.0114 16.6735 31.061 16.6445 31.0926 16.6133H31.3496V20.832C31.3496 20.9123 31.3474 20.9947 31.3428 21.0794C31.3383 21.1596 31.3316 21.2421 31.3226 21.3268C31.3947 21.3223 31.4668 21.3201 31.539 21.3201C31.6156 21.3156 31.6855 21.3112 31.7487 21.3067V21.6611H30.2404V21.3803Z" fill="#39892F"/>
<path d="M32.799 23.4729C32.6502 23.4729 32.5217 23.4328 32.4135 23.3525C32.3098 23.2768 32.2579 23.1653 32.2579 23.0183C32.2579 22.9247 32.2872 22.84 32.3459 22.7642C32.409 22.6884 32.4901 22.6505 32.5893 22.6505C32.6976 22.6461 32.7742 22.6795 32.8193 22.7508C32.8689 22.8221 32.8937 22.8957 32.8937 22.9715C32.8937 22.9848 32.8937 22.9982 32.8937 23.0116C32.8937 23.0249 32.8914 23.0405 32.8869 23.0584C32.9005 23.0673 32.9208 23.0695 32.9478 23.0651C32.9974 23.0606 33.0515 23.0339 33.1101 22.9848C33.1687 22.9358 33.2229 22.8667 33.2725 22.7776C33.3266 22.6795 33.3874 22.5436 33.4551 22.3697C33.5227 22.1959 33.5971 21.9953 33.6783 21.768L32.6164 19.5751C32.4947 19.3255 32.409 19.1316 32.3594 18.9935C32.3143 18.8508 32.285 18.7394 32.2715 18.6592L31.9468 18.6725V18.3182H33.4415V18.5923H33.428C33.2431 18.6101 33.1417 18.6792 33.1237 18.7996C33.1101 18.9199 33.153 19.0848 33.2522 19.2943L33.9962 20.9123C34.0818 20.6849 34.1675 20.4376 34.2532 20.1701C34.3433 19.9027 34.4358 19.6286 34.5305 19.3478C34.562 19.2631 34.5936 19.174 34.6252 19.0804C34.6612 18.9823 34.6973 18.8932 34.7334 18.8129C34.774 18.7327 34.8123 18.677 34.8484 18.6458L34.4087 18.6725V18.3182H35.5179V18.5923C35.3601 18.6458 35.2361 18.7439 35.1459 18.8865C35.0603 19.0291 34.9769 19.2096 34.8957 19.428L34.0503 21.7814C33.9195 22.1513 33.7978 22.4611 33.685 22.7107C33.5723 22.9648 33.4461 23.1542 33.3063 23.279C33.171 23.4083 33.0019 23.4729 32.799 23.4729Z" fill="#39892F"/>
<path d="M37.1484 21.768C37.0356 21.768 36.9229 21.7524 36.8102 21.7212C36.6975 21.6945 36.5915 21.6388 36.4923 21.5541C36.3976 21.4649 36.3232 21.3379 36.2691 21.173C36.215 21.0081 36.188 20.7897 36.188 20.5178L36.2015 18.6926H35.701V18.3182C35.8227 18.3137 35.9467 18.2692 36.073 18.1845C36.1992 18.0998 36.3097 17.9861 36.4044 17.8435C36.4991 17.7009 36.5645 17.5471 36.6005 17.3822H36.9184V18.3182H37.96V18.6659L36.9184 18.6792L36.9049 20.4643C36.9049 20.6337 36.9184 20.783 36.9455 20.9123C36.977 21.0371 37.0266 21.1351 37.0943 21.2064C37.1664 21.2733 37.2634 21.3067 37.3851 21.3067C37.4888 21.3067 37.5948 21.2755 37.703 21.2131C37.8157 21.1507 37.9217 21.0482 38.0209 20.9056L38.2508 21.1061C38.1426 21.2621 38.0344 21.3847 37.9262 21.4739C37.818 21.563 37.7143 21.6276 37.6151 21.6677C37.5159 21.7123 37.4257 21.7391 37.3445 21.748C37.2634 21.7613 37.198 21.768 37.1484 21.768Z" fill="#39892F"/>
<path d="M38.5382 21.3803C38.6734 21.3803 38.7681 21.3491 38.8222 21.2867C38.8763 21.2243 38.9079 21.1373 38.9169 21.0259C38.9305 20.9145 38.9372 20.7852 38.9372 20.6381V19.2542C38.9372 19.1784 38.9395 19.1027 38.944 19.0269C38.9485 18.9467 38.9553 18.862 38.9643 18.7728C38.8876 18.7773 38.8065 18.7817 38.7208 18.7862C38.6351 18.7862 38.5562 18.7884 38.4841 18.7929V18.4385C38.687 18.4385 38.847 18.4296 38.9643 18.4118C39.086 18.3895 39.1784 18.365 39.2416 18.3383C39.3092 18.3115 39.3588 18.2825 39.3904 18.2513H39.6474V20.832C39.6474 20.9123 39.6451 20.9947 39.6406 21.0794C39.6361 21.1596 39.6293 21.2421 39.6203 21.3268C39.6925 21.3223 39.7646 21.3201 39.8368 21.3201C39.9134 21.3156 39.9833 21.3112 40.0464 21.3067V21.6611H38.5382V21.3803ZM39.2619 17.6363C39.1446 17.6363 39.0454 17.5939 38.9643 17.5092C38.8831 17.4201 38.8425 17.3131 38.8425 17.1883C38.8425 17.0635 38.8854 16.9588 38.971 16.8741C39.0567 16.7849 39.1536 16.7404 39.2619 16.7404C39.3791 16.7404 39.476 16.7849 39.5527 16.8741C39.6339 16.9588 39.6744 17.0635 39.6744 17.1883C39.6744 17.3131 39.6339 17.4201 39.5527 17.5092C39.476 17.5939 39.3791 17.6363 39.2619 17.6363Z" fill="#39892F"/>
<path d="M42.1695 21.768C41.8674 21.768 41.5901 21.7012 41.3376 21.5675C41.0851 21.4293 40.8822 21.2332 40.7289 20.9791C40.5801 20.7251 40.5057 20.4175 40.5057 20.0565C40.5057 19.8158 40.5485 19.5863 40.6342 19.3679C40.7198 19.145 40.8393 18.9467 40.9926 18.7728C41.1505 18.599 41.3353 18.4631 41.5472 18.365C41.7637 18.2625 42.0027 18.2112 42.2642 18.2112C42.5302 18.2112 42.7579 18.2513 42.9473 18.3316C43.1367 18.4118 43.281 18.5165 43.3802 18.6458C43.4839 18.7751 43.5357 18.9155 43.5357 19.067C43.5357 19.174 43.5042 19.2676 43.441 19.3478C43.3779 19.428 43.2877 19.4681 43.1705 19.4681C43.0397 19.4726 42.9473 19.4347 42.8932 19.3545C42.8391 19.2698 42.812 19.1918 42.812 19.1205C42.812 19.0804 42.8188 19.0358 42.8323 18.9868C42.8458 18.9333 42.8706 18.8865 42.9067 18.8464C42.8706 18.7528 42.812 18.6837 42.7309 18.6391C42.6497 18.5945 42.5663 18.5656 42.4806 18.5522C42.3949 18.5388 42.3228 18.5321 42.2642 18.5321C41.9891 18.5366 41.7569 18.6547 41.5675 18.8865C41.3827 19.1138 41.2902 19.4436 41.2902 19.876C41.2902 20.1523 41.3308 20.3997 41.412 20.6181C41.4976 20.8365 41.6216 21.0103 41.784 21.1396C41.9463 21.2688 42.1402 21.3357 42.3656 21.3401C42.5685 21.3401 42.7647 21.2889 42.9541 21.1864C43.1434 21.0794 43.2967 20.9457 43.414 20.7852L43.6304 20.9724C43.4996 21.173 43.3486 21.3312 43.1773 21.4471C43.0104 21.563 42.8391 21.6455 42.6632 21.6945C42.4919 21.7435 42.3273 21.768 42.1695 21.768Z" fill="#39892F"/>
<path d="M45.5468 21.768C45.3349 21.768 45.1387 21.7391 44.9584 21.6811C44.778 21.6276 44.6337 21.563 44.5255 21.4872L44.5458 21.7079H44.1873L44.1535 20.5579H44.4376C44.4466 20.7228 44.4985 20.8721 44.5932 21.0059C44.6878 21.1396 44.8096 21.2443 44.9584 21.3201C45.1117 21.3959 45.2763 21.4337 45.4521 21.4337C45.5558 21.4337 45.6573 21.4181 45.7565 21.3869C45.8557 21.3513 45.9391 21.3 46.0067 21.2332C46.0744 21.1619 46.1082 21.0749 46.1082 20.9724C46.1082 20.861 46.0721 20.7696 46 20.6983C45.9323 20.6225 45.8376 20.5557 45.7159 20.4977C45.5987 20.4398 45.4634 20.3819 45.3101 20.3239C45.1748 20.2704 45.0373 20.2147 44.8975 20.1568C44.7622 20.0988 44.636 20.0297 44.5188 19.9495C44.4015 19.8693 44.3091 19.7712 44.2414 19.6553C44.1738 19.535 44.14 19.3879 44.14 19.2141C44.14 19.1116 44.1603 19.0024 44.2009 18.8865C44.2414 18.7661 44.3068 18.6569 44.397 18.5589C44.4872 18.4564 44.6089 18.3739 44.7622 18.3115C44.9155 18.2447 45.1049 18.2112 45.3304 18.2112C45.4521 18.2112 45.5874 18.2313 45.7362 18.2714C45.8895 18.3115 46.0315 18.3806 46.1623 18.4787L46.1555 18.2447H46.514V19.4213H46.2232C46.2096 19.2653 46.1668 19.1205 46.0947 18.9868C46.027 18.8531 45.9301 18.7439 45.8038 18.6592C45.6776 18.5745 45.5243 18.5321 45.3439 18.5321C45.1681 18.5321 45.0238 18.5767 44.911 18.6659C44.8028 18.7505 44.7487 18.8575 44.7487 18.9868C44.7487 19.116 44.7893 19.2208 44.8705 19.301C44.9561 19.3812 45.0666 19.4503 45.2019 19.5083C45.3371 19.5662 45.4837 19.6241 45.6415 19.6821C45.8309 19.7579 46.009 19.8403 46.1758 19.9295C46.3426 20.0186 46.4779 20.13 46.5816 20.2637C46.6853 20.3975 46.7372 20.5668 46.7372 20.7719C46.7372 20.9947 46.6786 21.1819 46.5613 21.3335C46.4486 21.4805 46.3021 21.5897 46.1217 21.6611C45.9413 21.7324 45.7497 21.768 45.5468 21.768Z" fill="#39892F"/>
<path d="M5.97013 14.3424H8.59755C8.01373 13.7652 7.78019 13.2026 7.78019 11.9471V8.55641C7.78019 7.97931 8.07209 7.69062 8.65605 7.69062H12.0862C13.3562 7.69062 13.9254 7.92148 14.5094 8.49858V5.90138C13.9254 6.47862 13.3562 6.70962 12.0862 6.70962H8.65605C8.07209 6.70962 7.78019 6.42093 7.78019 5.84383V2.45287C7.78019 1.19763 8.01373 0.634912 8.59755 0.0578109H5.97013C6.55409 0.634912 6.78763 1.19763 6.78763 2.45287V5.84383C6.78763 6.42093 6.49573 6.70962 5.91191 6.70962H2.48148C1.21166 6.70962 0.642365 6.47862 0.0585494 5.90138V8.49858C0.642365 7.92148 1.21166 7.69062 2.48148 7.69062H5.91191C6.49573 7.69062 6.78763 7.97931 6.78763 8.55641V11.9471C6.78763 13.2026 6.55409 13.7652 5.97013 14.3424Z" fill="#00338E"/>
<path d="M4.29149 14.4C5.44461 14.1548 6.14526 13.2314 6.14526 11.976V8.96049C6.14526 8.46991 5.99938 8.32556 5.50308 8.32556H2.45224C1.18242 8.32556 0.248212 9.018 0 10.1581H4.29149V14.4ZM14.5676 4.24212H10.2762V-5.57456e-06C9.12295 0.24534 8.42231 1.16882 8.42231 2.42416V5.43978C8.42231 5.93036 8.56847 6.07457 9.06477 6.07457H12.1153C13.3854 6.07457 14.3195 5.38212 14.5676 4.24212ZM2.45224 6.07457H5.50308C5.99938 6.07457 6.14526 5.93036 6.14526 5.43978V2.42416C6.14526 1.16882 5.44461 0.24534 4.29149 -5.57456e-06V4.24212H0C0.248212 5.38212 1.18242 6.07457 2.45224 6.07457ZM8.42231 11.976V8.96049C8.42231 8.46991 8.56847 8.32556 9.06477 8.32556H12.1153C13.3854 8.32556 14.3195 9.018 14.5676 10.1581H10.2762V14.4C9.12295 14.1548 8.42231 13.2314 8.42231 11.976Z" fill="#39892F"/>
</svg>
